<?xml version="1.0" encoding="UTF-8" standalone="no"?>
<svg
   height="16"
   width="16"
   version="1.1"
   id="svg4"
   sodipodi:docname="icon.svg"
   inkscape:version="1.1 (c68e22c387, 2021-05-23)"
   xmlns:inkscape="http://www.inkscape.org/namespaces/inkscape"
   xmlns:sodipodi="http://sodipodi.sourceforge.net/DTD/sodipodi-0.dtd"
   xmlns="http://www.w3.org/2000/svg"
   xmlns:svg="http://www.w3.org/2000/svg">
  <defs
     id="defs8" />
  <sodipodi:namedview
     id="namedview6"
     pagecolor="#505050"
     bordercolor="#eeeeee"
     borderopacity="1"
     inkscape:pageshadow="0"
     inkscape:pageopacity="0"
     inkscape:pagecheckerboard="0"
     showgrid="false"
     inkscape:zoom="29.916667"
     inkscape:cx="2.7409471"
     inkscape:cy="9.0083565"
     inkscape:window-width="1920"
     inkscape:window-height="991"
     inkscape:window-x="-9"
     inkscape:window-y="-9"
     inkscape:window-maximized="1"
     inkscape:current-layer="svg4"
     showguides="false" />
  <path
     d="m 3.2284887,10.710179 c -0.2104523,0 -0.3844802,-0.07141 -0.5220836,-0.214205 C 2.5688017,10.35317 2.5,10.172565 2.5,9.9541593 V 6.042073 C 2.5,5.8236672 2.568802,5.6430616 2.7064051,5.5002578 2.8440085,5.3574539 3.0189319,5.3067643 3.2284887,5.2860514 L 6.3243844,5.2859796 12.261569,1.2191289 C 12.532928,1.0332525 12.751275,0.92932029 13.050765,1.0553245 13.350255,1.1813273 13.5,1.4123337 13.5,1.7483435 V 14.247886 c 0,0.336011 -0.149745,0.567015 -0.449235,0.69302 -0.29949,0.126004 -0.529922,0.04082 -0.789196,-0.163806 L 6.3243844,10.710179 Z"
     id="path2"
     sodipodi:nodetypes="sssssscsssssscs"
     style="fill:#8eef97;fill-opacity:1;stroke-width:0.49475" />
  <g
     id="path2-6"
     style="fill:#8eef97;fill-opacity:1"
     transform="matrix(0.8605852,0,0,0.8605852,0.6394148,-3.7332185)" />
  <g
     id="path2-6-0"
     style="fill:#8eef97;fill-opacity:1"
     transform="matrix(0.8605852,0,0,0.8605852,0.6394148,6.2667816)" />
</svg>
