<?xml version="1.0" encoding="UTF-8" standalone="no"?>
<svg
   height="128"
   width="128"
   version="1.1"
   id="svg4"
   sodipodi:docname="icon.svg"
   inkscape:version="1.1 (c68e22c387, 2021-05-23)"
   xmlns:inkscape="http://www.inkscape.org/namespaces/inkscape"
   xmlns:sodipodi="http://sodipodi.sourceforge.net/DTD/sodipodi-0.dtd"
   xmlns="http://www.w3.org/2000/svg"
   xmlns:svg="http://www.w3.org/2000/svg">
  <defs
     id="defs8" />
  <sodipodi:namedview
     id="namedview6"
     pagecolor="#505050"
     bordercolor="#eeeeee"
     borderopacity="1"
     inkscape:pageshadow="0"
     inkscape:pageopacity="0"
     inkscape:pagecheckerboard="0"
     showgrid="false"
     inkscape:zoom="3.7395834"
     inkscape:cx="33.158774"
     inkscape:cy="53.615598"
     inkscape:window-width="1920"
     inkscape:window-height="991"
     inkscape:window-x="-9"
     inkscape:window-y="-9"
     inkscape:window-maximized="1"
     inkscape:current-layer="svg4"
     showguides="false" />
  <path
     d="m 23.101329,87.230107 c -1.803876,0 -3.295545,-0.612086 -4.475001,-1.836043 C 17.446869,84.17003 16.85714,82.621988 16.85714,80.749937 V 47.21777 c 0,-1.872052 0.589732,-3.420098 1.769188,-4.644132 1.179456,-1.224033 2.6788,-1.658515 4.475001,-1.836055 l 26.53625,-6.15e-4 50.890161,-34.8587212 c 2.32593,-1.5932263 4.19748,-2.4840738 6.76453,-1.4040378 2.56706,1.080024 3.85059,3.0600792 3.85059,5.940163 V 117.55331 c 0,2.8801 -1.28353,4.86013 -3.85059,5.94018 -2.56705,1.08002 -4.54218,0.34988 -6.76453,-1.40406 L 49.637579,87.230107 Z"
     id="path2"
     sodipodi:nodetypes="sssssscsssssscs"
     style="fill:#8eef97;fill-opacity:1;stroke-width:4.24071" />
  <g
     id="path2-6"
     style="fill:#8eef97;fill-opacity:1"
     transform="matrix(0.8605852,0,0,0.8605852,0.6394148,-3.7332185)" />
  <g
     id="path2-6-0"
     style="fill:#8eef97;fill-opacity:1"
     transform="matrix(0.8605852,0,0,0.8605852,0.6394148,6.2667816)" />
</svg>
