<?xml version="1.0" encoding="UTF-8" standalone="no"?>
<svg
   height="16"
   width="16"
   version="1.1"
   id="svg4"
   sodipodi:docname="HVolumeSlider.svg"
   inkscape:version="1.1 (c68e22c387, 2021-05-23)"
   xmlns:inkscape="http://www.inkscape.org/namespaces/inkscape"
   xmlns:sodipodi="http://sodipodi.sourceforge.net/DTD/sodipodi-0.dtd"
   xmlns="http://www.w3.org/2000/svg"
   xmlns:svg="http://www.w3.org/2000/svg">
  <defs
     id="defs8" />
  <sodipodi:namedview
     id="namedview6"
     pagecolor="#505050"
     bordercolor="#eeeeee"
     borderopacity="1"
     inkscape:pageshadow="0"
     inkscape:pageopacity="0"
     inkscape:pagecheckerboard="0"
     showgrid="false"
     inkscape:zoom="32"
     inkscape:cx="4.8125"
     inkscape:cy="7.484375"
     inkscape:window-width="1920"
     inkscape:window-height="991"
     inkscape:window-x="-9"
     inkscape:window-y="-9"
     inkscape:window-maximized="1"
     inkscape:current-layer="svg4"
     showguides="false" />
  <path
     id="path2"
     style="fill:#8eef97;fill-opacity:1;stroke-width:0.365068"
     d="m 8.5566406,1.0039062 c -0.1236072,0.010123 -0.2366085,0.069295 -0.3632812,0.15625 L 3.9628906,4.0644531 H 1.5546875 C 1.3948767,4.0792411 1.2631414,4.114842 1.1582031,4.2167969 1.0532648,4.3187516 1,4.4475849 1,4.6035156 V 7.3964844 C 1,7.5524152 1.0532649,7.6812479 1.1582031,7.7832031 1.2631414,7.885152 1.3941937,7.9375 1.5546875,7.9375 h 2.4082031 l 4.2304688,2.902344 c 0.2026815,0.139129 0.3731677,0.207147 0.6015625,0.117187 0.228395,-0.08996 0.3417969,-0.254245 0.3417969,-0.49414 V 1.5390625 c 0,-0.2398941 -0.1134019,-0.4041806 -0.3417969,-0.4941406 -0.085648,-0.033735 -0.164117,-0.0470892 -0.2382813,-0.041016 z m -3.327647,4.1796876 h 2.218272 c 0,0 0.6523438,0.017263 0.6523438,0.75 0,0.7327366 -0.6523438,0.75 -0.6523438,0.75 h -2.218272 c 0,0 -0.6542968,-0.017263 -0.6542968,-0.75 0,-0.7327366 0.6542968,-0.75 0.6542968,-0.75 z"
     sodipodi:nodetypes="scccssscsccssssscczcczc" />
  <path
     d="m 15,13 c 0,-1.10457 -0.894518,-2 -1.997963,-2 -1.103444,0 -1.997962,0.89543 -1.997962,2 0,1.104569 0.894518,2 1.997962,2 C 14.105482,15 15,14.104569 15,13 Z m -5.8612229,1 c -0.08621,-0.32639 -0.130787,-0.6624 -0.132675,-1 0.0012,-0.33752 0.04518,-0.67352 0.130727,-1 H 4.1419212 3.0121732 2.0131922 c -1.35092303,-0.01913 -1.35092303,2.0191 0,2 h 0.998981 1.131646 4.9949079 z"
     fill="#8eef97"
     id="path2-1"
     sodipodi:nodetypes="sssssccccccccccc"
     style="stroke-width:0.999491" />
  <path
     d="m 13.000001,8.0001136 q -0.13468,0 -0.225589,-0.09091 -0.09091,-0.09091 -0.09091,-0.225589 v -1.367003 h -1.367003 q -0.13468,0 -0.225589,-0.09091 Q 11,6.1347916 11,6.0001116 q 0,-0.13468 0.09091,-0.225589 0.09091,-0.09091 0.225589,-0.09091 h 1.367003 v -1.367003 q 0,-0.13468 0.09091,-0.22559 0.09091,-0.09091 0.225589,-0.09091 0.134681,0 0.22559,0.09091 0.09091,0.09091 0.09091,0.22559 v 1.367003 h 1.367003 q 0.13468,0 0.225589,0.09091 0.09091,0.09091 0.09091,0.225589 0,0.134681 -0.09091,0.22559 -0.09091,0.09091 -0.225589,0.09091 h -1.367003 v 1.367003 q 0,0.13468 -0.09091,0.225589 -0.09091,0.09091 -0.22559,0.09091 z"
     id="path2-6"
     style="fill:#8eef97;fill-opacity:1;stroke:#8eef97;stroke-width:1;stroke-miterlimit:4;stroke-dasharray:none;stroke-opacity:1" />
</svg>
