<?xml version="1.0" encoding="UTF-8" standalone="no"?>
<svg
   height="16"
   width="16"
   version="1.1"
   id="svg4"
   sodipodi:docname="VVolumeSlider.svg"
   inkscape:version="1.1 (c68e22c387, 2021-05-23)"
   xmlns:inkscape="http://www.inkscape.org/namespaces/inkscape"
   xmlns:sodipodi="http://sodipodi.sourceforge.net/DTD/sodipodi-0.dtd"
   xmlns="http://www.w3.org/2000/svg"
   xmlns:svg="http://www.w3.org/2000/svg">
  <defs
     id="defs8" />
  <sodipodi:namedview
     id="namedview6"
     pagecolor="#505050"
     bordercolor="#eeeeee"
     borderopacity="1"
     inkscape:pageshadow="0"
     inkscape:pageopacity="0"
     inkscape:pagecheckerboard="0"
     showgrid="false"
     inkscape:zoom="42.308556"
     inkscape:cx="5.1526221"
     inkscape:cy="7.6934793"
     inkscape:window-width="1920"
     inkscape:window-height="991"
     inkscape:window-x="-9"
     inkscape:window-y="-9"
     inkscape:window-maximized="1"
     inkscape:current-layer="svg4"
     showguides="false" />
  <path
     d="m 1.6666666,10.32488 c -0.1925926,0 -0.3518519,-0.06119 -0.4777778,-0.183548 C 1.0629629,10.018966 1,9.8642089 1,9.6770617 V 6.32488 C 1,6.1377328 1.0629635,5.9829758 1.1888888,5.8606103 1.3148147,5.7382447 1.4748935,5.6948099 1.6666666,5.6770615 L 5.2173597,5.677 8.8663335,2.1922039 C 9.0796885,1.9884484 9.3144808,1.9438733 9.5885551,2.0518435 9.8626294,2.1598126 9.9996666,2.3577569 9.9996666,2.6456764 V 13.356264 c 0,0.28792 -0.1370372,0.485863 -0.4111115,0.593833 -0.2740743,0.10797 -0.4857921,0.03611 -0.7222217,-0.140361 L 5.2173597,10.32488 Z"
     id="path2"
     sodipodi:nodetypes="sssssscsssssscs"
     style="fill:#8eef97;fill-opacity:1;stroke-width:0.438116" />
  <path
     d="m 13,1 c -1.10457,0 -2,0.8945183 -2,1.9979627 0,1.1034443 0.89543,1.9979627 2,1.9979627 1.104569,0 2,-0.8945184 2,-1.9979627 C 15,1.8945183 14.104569,1 13,1 Z m 1,5.8612234 C 13.67361,6.9474295 13.3376,6.99201 13,6.9938981 12.66248,6.9926494 12.32648,6.9487201 12,6.8631714 v 4.9949076 1.129748 0.998981 c -0.01913,1.350923 2.0191,1.350923 2,0 V 12.987827 11.856181 6.8612734 Z"
     fill="#8eef97"
     id="path2-1"
     sodipodi:nodetypes="sssssccccccccccc"
     style="stroke-width:0.999491" />
  <g
     id="path2-6"
     style="fill:#8eef97;fill-opacity:1"
     transform="matrix(0.8605852,0,0,0.8605852,0.6394148,-3.7332185)">
    <path
       style="color:#000000;fill:#8eef97;fill-opacity:1;stroke-width:0.9296;-inkscape-stroke:none"
       d="M 3.324,5.5 C 3.1359532,5.5 2.9222491,5.5840165 2.7847594,5.7215062 2.647269,5.8589966 2.5650688,6.0708846 2.5650688,6.2589312 V 7.0650687 H 1.7589312 c -0.1880467,0 -0.3999352,0.082201 -0.537425,0.2196907 C 1.0840146,7.4222496 1,7.6359534 1,7.824 1,8.0120466 1.084016,8.2257503 1.2215062,8.3632406 1.3589965,8.5007323 1.5708846,8.5829312 1.7589312,8.5829313 h 0.8061376 v 0.8061375 c 0,0.1880467 0.082201,0.3999355 0.2196906,0.5374252 C 2.9222496,10.063986 3.1359534,10.148 3.324,10.148 3.5120466,10.148 3.7257503,10.06398 3.8632406,9.926494 4.0007323,9.7890034 4.0829312,9.5771154 4.0829312,9.3890688 V 8.5829313 h 0.8061375 c 0.1880468,0 0.3999353,-0.082201 0.537425,-0.2196907 C 5.563986,8.2257499 5.648,8.0120465 5.648,7.824 5.648,7.6359532 5.5639835,7.4222491 5.4264937,7.2847594 5.2890035,7.1472677 5.0771154,7.0650687 4.8890687,7.0650687 H 4.0829312 V 6.2589312 c 1e-7,-0.1880466 -0.0822,-0.3999346 -0.2196906,-0.537425 C 3.7257499,5.584014 3.5120465,5.5 3.324,5.5 Z"
       id="path8946" />
  </g>
  <g
     id="path2-6-0"
     style="fill:#8eef97;fill-opacity:1"
     transform="matrix(0.8605852,0,0,0.8605852,0.6394148,6.2667816)">
    <path
       style="color:#000000;fill:#8eef97;fill-opacity:1;stroke-width:0.9296;-inkscape-stroke:none"
       d="M 2.5650688,7.0650687 H 1.7589312 c -0.1880467,0 -0.3999352,0.082201 -0.537425,0.2196907 C 1.0840146,7.4222496 1,7.6359534 1,7.824 1,8.0120466 1.084016,8.2257503 1.2215062,8.3632406 1.3589965,8.5007323 1.5708846,8.5829312 1.7589312,8.5829313 h 0.8061376 1.5178624 0.8061375 c 0.1880468,0 0.3999353,-0.082201 0.537425,-0.2196907 C 5.563986,8.2257499 5.648,8.0120465 5.648,7.824 5.648,7.6359532 5.5639835,7.4222491 5.4264937,7.2847594 5.2890035,7.1472677 5.0771154,7.0650687 4.8890687,7.0650687 H 4.0829312 Z"
       id="path8946-4"
       sodipodi:nodetypes="csssssccssssscc" />
  </g>
</svg>
